<svg width="1506" height="1506" viewBox="0 0 1506 1506" fill="none" xmlns="http://www.w3.org/2000/svg">
<circle cx="753" cy="753" r="753" fill="#062A74"/>
<path d="M243 487.711L736.304 706.959L769.696 631.826L276.391 412.579L243 487.711ZM794.109 1272.32V669.391H711.891V1272.32H794.109ZM769.696 706.959L1263 487.711L1229.61 412.579L736.304 631.826L769.696 706.959Z" fill="white"/>
<path d="M259.7 1031.7V471.517C259.7 458.521 267.354 446.743 279.231 441.465L739.647 236.834C748.154 233.055 757.855 233.055 766.362 236.834L1226.78 441.465C1238.66 446.743 1246.31 458.521 1246.31 471.517V1031.7C1246.31 1044.7 1238.66 1056.48 1226.78 1061.75L766.362 1266.38C757.855 1270.16 748.154 1270.16 739.647 1266.38L279.231 1061.75C267.354 1056.48 259.7 1044.7 259.7 1031.7Z" stroke="white" stroke-width="63.0312" stroke-linecap="round" stroke-linejoin="round"/>
<path d="M506.353 340.519L980.128 551.085C992.005 556.364 999.657 568.141 999.657 581.137V779.012" stroke="white" stroke-width="63.0312" stroke-linecap="round" stroke-linejoin="round"/>
</svg>
