<svg width="1506" height="1506" viewBox="0 0 1506 1506" fill="none" xmlns="http://www.w3.org/2000/svg">
<circle cx="753" cy="753" r="753" fill="#062A74"/>
<path d="M676.421 354.579V592.865C676.421 603.426 670.979 613.243 662.024 618.84L282.397 856.105C273.441 861.705 268 871.523 268 882.08V927.977C268 947.908 286.728 962.529 306.061 957.694L638.36 874.622C657.695 869.787 676.421 884.408 676.421 904.339V1055.41C676.421 1064.25 672.607 1072.65 665.96 1078.47L555.672 1174.97C532.274 1195.45 550.734 1233.73 581.322 1228.16L747.522 1197.94C751.142 1197.28 754.858 1197.28 758.478 1197.94L924.68 1228.16C955.265 1233.73 973.726 1195.45 950.329 1174.97L840.04 1078.47C833.393 1072.65 829.579 1064.25 829.579 1055.41V904.339C829.579 884.408 848.305 869.787 867.639 874.622L1199.94 957.694C1219.27 962.529 1238 947.908 1238 927.977V882.08C1238 871.523 1232.56 861.705 1223.6 856.105L843.976 618.84C835.021 613.243 829.579 603.426 829.579 592.865V354.579C829.579 312.285 795.292 278 753 278C710.708 278 676.421 312.285 676.421 354.579Z" stroke="white" stroke-width="61.7348" stroke-linecap="round" stroke-linejoin="round"/>
</svg>
