<svg width="1506" height="1506" viewBox="0 0 1506 1506" fill="none" xmlns="http://www.w3.org/2000/svg">
<circle cx="753" cy="753" r="753" fill="#062A74"/>
<path d="M540.549 1098.88C599.335 1098.88 646.991 1051.22 646.991 992.433C646.991 933.645 599.335 885.991 540.549 885.991C481.762 885.991 434.106 933.645 434.106 992.433C434.106 1051.22 481.762 1098.88 540.549 1098.88Z" stroke="white" stroke-width="53.3164" stroke-miterlimit="1.5" stroke-linecap="round" stroke-linejoin="round"/>
<path d="M1072.76 1098.88C1131.55 1098.88 1179.2 1051.22 1179.2 992.433C1179.2 933.645 1131.55 885.991 1072.76 885.991C1013.97 885.991 966.317 933.645 966.317 992.433C966.317 1051.22 1013.97 1098.88 1072.76 1098.88Z" stroke="white" stroke-width="53.3164" stroke-miterlimit="1.5" stroke-linecap="round" stroke-linejoin="round"/>
<path d="M649.652 992.433H913.097V438.933C913.097 421.297 898.801 407 881.164 407H168" stroke="white" stroke-width="53.3164" stroke-linecap="round"/>
<path d="M415.479 992.433H306.376C288.74 992.433 274.443 978.138 274.443 960.5V699.717" stroke="white" stroke-width="53.3164" stroke-linecap="round"/>
<path d="M221.221 566.663H434.105" stroke="white" stroke-width="53.3164" stroke-linecap="round" stroke-linejoin="round"/>
<path d="M913.098 566.663H1211.67C1224.29 566.663 1235.73 574.095 1240.86 585.627L1336.12 799.964C1337.93 804.051 1338.87 808.469 1338.87 812.934V960.5C1338.87 978.138 1324.57 992.433 1306.93 992.433H1205.81" stroke="white" stroke-width="53.3164" stroke-linecap="round"/>
<path d="M913.098 992.433H966.319" stroke="white" stroke-width="53.3164" stroke-linecap="round"/>
</svg>
